<svg width="512" height="512" viewBox="0 0 512 512" fill="none" xmlns="http://www.w3.org/2000/svg">
<path d="M144.43 30.2107C149.892 30.1564 155.353 30.1022 160.98 30.0463C166.936 30.0117 172.891 29.9803 178.847 29.9516C183.37 29.9258 183.37 29.9258 187.983 29.8994C203.952 29.8114 219.92 29.7509 235.888 29.7112C252.3 29.6645 268.709 29.5192 285.119 29.3511C297.809 29.2401 310.498 29.2052 323.188 29.1901C329.233 29.1696 335.278 29.1208 341.322 29.0419C383.138 28.5304 414.456 32.3975 448.543 57.3787C471.97 81.3505 481.501 108.772 481.788 141.949C481.869 150.142 481.869 150.142 481.952 158.5C481.987 164.477 482.018 170.455 482.047 176.433C482.064 179.452 482.081 182.47 482.099 185.581C482.187 201.576 482.248 217.572 482.287 233.568C482.334 250.012 482.479 266.455 482.647 282.899C482.758 295.607 482.793 308.314 482.808 321.022C482.829 327.079 482.878 333.136 482.957 339.192C483.468 381.082 479.797 412.614 454.356 446.542C429.228 471.67 404.519 479.484 369.57 479.786C364.108 479.841 358.647 479.895 353.02 479.951C347.064 479.985 341.109 480.017 335.153 480.045C330.63 480.071 330.63 480.071 326.017 480.098C310.048 480.186 294.08 480.246 278.112 480.286C261.7 480.332 245.291 480.478 228.881 480.646C216.191 480.757 203.502 480.792 190.812 480.807C184.767 480.827 178.722 480.876 172.678 480.955C130.862 481.467 99.5437 477.599 65.4567 452.618C42.0297 428.646 32.499 401.225 32.2122 368.048C32.1308 359.855 32.1308 359.855 32.0478 351.497C32.0133 345.519 31.9818 339.542 31.9532 333.564C31.9359 330.545 31.9187 327.526 31.901 324.416C31.8128 308.421 31.7524 292.425 31.7127 276.429C31.6661 259.985 31.5208 243.542 31.3527 227.098C31.2416 214.39 31.2067 201.683 31.1916 188.975C31.1711 182.918 31.1223 176.861 31.0435 170.805C30.5323 128.915 34.2034 97.3832 59.6444 63.4552C84.7724 38.3271 109.481 30.5134 144.43 30.2107Z" fill="#0B1A23"/>
<path d="M286.057 101.764C289.289 101.677 292.52 101.59 295.849 101.5C325.163 101.301 352.082 107.536 374.564 127.392C376.858 129.337 379.152 131.282 381.515 133.286C401.891 156.963 403.432 180.331 402.734 210.399C399.163 237.001 387.387 256.52 367.827 274.665C340.812 295.104 315.777 301.709 282.359 297.271C266.061 288.831 258.695 282.911 248.541 267.681C253.828 291.71 261.124 304.776 278.131 322.634C296.971 332.053 323.198 329.913 342.926 323.822C366.436 312.696 381.707 295.919 398.87 276.663C402.27 273.699 405.67 270.735 409.174 267.681C418.949 268.473 418.949 268.473 426.082 271.908C421.377 309.547 402.53 346.818 375.356 373.36C339.675 400.505 310.733 408.522 265.45 402.95C241.661 392.829 228.01 375.678 217.861 352.372C213.261 339.759 209.527 327.208 206.27 314.179C204.27 316.74 202.27 319.301 200.21 321.94C181.615 345.501 162.306 368.074 141.954 390.136C134.22 398.202 134.22 398.202 130.181 407.177C119.544 405.589 114.472 404.276 107.146 396.18C105.419 393.357 103.691 390.534 101.912 387.626C100.152 384.869 98.3916 382.112 96.5782 379.271C90.4262 365.229 87.9751 354.982 87.9092 339.542C93.9107 328.197 102.087 319.477 110.894 310.216C113.23 307.633 115.566 305.049 117.973 302.387C133.103 285.792 148.763 269.72 164.89 254.091C172.671 246.327 179.831 238.244 186.983 229.9C203.667 210.474 221.804 192.593 240.087 174.683C221.314 180.279 205.807 187.755 189.097 197.932C173.963 207.126 159.502 215.075 142.862 221.182C120.165 170.822 120.165 170.822 125.954 149.32C167.465 111.624 232.044 102.125 286.057 101.764Z" fill="#F94337"/>
<path d="M303.497 166.228C330.135 168.741 330.135 168.741 341.277 175.211C348.63 188.186 347.528 198.144 345.768 212.727C335.769 229.392 326.562 237.498 307.724 242.317C280.908 244.166 280.908 244.166 265.452 233.863C271.51 217.127 279.535 203.059 289.23 188.156C291.9 184.031 294.57 179.907 297.321 175.657C300.378 170.989 300.378 170.989 303.497 166.228Z" fill="#151C24"/>
</svg>
